<?xml version="1.0" standalone="no"?>
<!DOCTYPE svg PUBLIC "-//W3C//DTD SVG 20010904//EN"
 "http://www.w3.org/TR/2001/REC-SVG-20010904/DTD/svg10.dtd">
<svg version="1.0" xmlns="http://www.w3.org/2000/svg"
 width="1024.000000pt" height="1024.000000pt" viewBox="0 0 1024.000000 1024.000000"
 preserveAspectRatio="xMidYMid meet">

<g transform="translate(0.000000,1024.000000) scale(0.100000,-0.100000)"
fill="#ffffff" stroke="none">
<path d="M0 5120 l0 -5120 5120 0 5120 0 0 5120 0 5120 -5120 0 -5120 0 0
-5120z m5553 4835 c646 -56 1192 -208 1772 -495 845 -418 1557 -1084 2025
-1895 85 -146 247 -481 305 -630 159 -404 260 -814 312 -1270 25 -220 25 -790
0 -1010 -43 -371 -123 -747 -227 -1057 -301 -893 -845 -1675 -1580 -2265 -435
-350 -948 -627 -1497 -809 -510 -169 -996 -246 -1548 -247 -385 0 -698 32
-1052 108 -781 169 -1535 553 -2148 1096 -142 125 -417 406 -524 534 -781 937
-1178 2072 -1148 3280 9 336 36 574 102 881 142 660 439 1299 868 1868 137
181 254 315 441 502 256 255 480 440 751 619 940 622 2003 888 3148 790z"/>
<path d="M2404 6257 c-532 -573 -801 -980 -936 -1415 -76 -248 -89 -539 -32
-709 80 -235 265 -425 491 -504 226 -78 522 -77 873 2 333 76 639 193 1405
539 244 110 580 255 997 431 208 87 482 207 610 265 1074 490 2300 1024 3003
1309 105 42 194 81 199 86 19 18 -5 22 -57 10 -89 -20 -1327 -346 -1797 -473
-245 -66 -535 -144 -645 -173 -110 -30 -299 -81 -420 -114 -121 -33 -447 -120
-725 -195 -278 -74 -698 -187 -935 -251 -1156 -312 -1097 -299 -1385 -299
-206 0 -219 1 -305 28 -236 72 -389 213 -448 414 -43 142 -43 347 -1 549 35
170 128 408 222 570 73 125 58 116 -114 -70z"/>
</g>
</svg>
